<?xml version="1.0" encoding="utf-8"?>
<svg xmlns="http://www.w3.org/2000/svg" viewBox="0 0 500 500">
  <g transform="matrix(-0.626512, 0, 0, 0.615569, 932.129944, 334.269562)" style="">
    <path fill="#60362C" d="M 953.04 -212.92 C 958.505 -226.85 975.474 -259.33 983.561 -270.96 C 992.719 -284.29 1002.44 -297.23 1012.7 -309.73 C 1029.3 -330.09 1050.84 -349.16 1055.28 -376.38 C 1058.68 -397.22 1050.68 -416.61 1043.31 -435.6 C 1042.01 -438.93 1037.08 -448.16 1037.59 -451.34 C 1037.97 -453.7 1039.29 -455.8 1041.25 -457.17 C 1047.12 -461.24 1060.85 -459.87 1067.36 -458.34 C 1088.57 -453.36 1090.88 -440.99 1100.91 -424.35 C 1106.91 -414.4 1118.96 -403.12 1130.18 -399.47 C 1156.21 -391.62 1186.05 -392.03 1213.12 -390.6 C 1293.78 -386.32 1371.25 -349.96 1414.65 -279.68 C 1444.12 -231.95 1456.58 -178.81 1443.72 -122.97 C 1427.18 -51.137 1377.86 4.618 1316.52 43.017 C 1308.66 47.938 1300.53 52.504 1292.63 57.428 C 1293.56 73.035 1307.45 66.853 1317.17 69.568 L 1317.43 70.316 C 1313.46 75.518 1301.32 78.268 1295.13 78.02 L 1292.63 78.04 L 1292.23 78.573 C 1297.24 83.761 1302.87 82.439 1308.75 84.279 C 1309.29 84.448 1309.22 85.222 1309.32 85.949 C 1308.36 87.92 1307.53 88.23 1305.39 88.396 C 1298.98 88.787 1290.7 86.44 1285.03 83.287 C 1283.92 82.667 1283.05 80.598 1281.61 79.597 C 1282.72 82.17 1283.89 84.566 1285.08 87.099 C 1287.13 91.444 1290.9 93.829 1290.32 98.83 C 1286.99 102.953 1280.61 93.977 1279.59 90.105 L 1278.71 92.648 C 1276.32 95.936 1276.76 99.96 1271.03 102.048 C 1266.34 100.722 1270.27 95.127 1271.09 92.488 C 1272.28 88.615 1270.55 68.759 1267.33 67.827 C 1266.71 70.059 1268.49 78.798 1268.9 81.823 C 1266.13 88.298 1256.72 102.247 1248.34 99.911 L 1247.91 99.084 C 1249.97 91.167 1265.59 87.027 1261.51 70.607 C 1259.37 69.939 1250.94 73.476 1247.97 74.404 C 1233.2 79.022 1218.46 83.008 1203.19 85.53 C 1174.88 90.208 1148.55 87.661 1120.33 84.239 C 1099.59 119.903 1077.81 141.76 1039.89 159.358 C 1029.06 164.384 1017.79 168.969 1006.27 172.273 C 944.475 189.781 878.254 181.997 822.203 150.637 C 786.923 130.946 749.968 96.084 739.808 56.241 C 714.184 -44.244 795.076 -142.91 880.227 -185.13 C 891.48 -190.71 903.398 -196.74 915.224 -201.21 C 927.429 -205.82 940.389 -209.39 953.04 -212.92 Z" style="stroke-width: 1;"/>
    <path fill="#593123" d="M 1277.72 82.896 C 1277.4 81.629 1277.51 82.267 1277.4 80.984 C 1278.44 79.378 1278.35 79.475 1280.07 78.633 L 1281.61 79.597 C 1282.72 82.17 1283.89 84.566 1285.08 87.099 C 1287.13 91.444 1290.9 93.829 1290.32 98.83 C 1286.99 102.953 1280.61 93.977 1279.59 90.105 C 1279.33 87.149 1278.68 85.676 1277.72 82.896 Z" style="stroke-width: 1;"/>
    <path fill="#A2857E" d="M 1281.63 88.781 C 1283.58 90.624 1285.25 93.516 1287.05 95.633 C 1286.53 95.483 1286.12 95.388 1285.63 95.116 C 1283.24 93.784 1282.43 91.209 1281.63 88.781 Z" style="stroke-width: 1;"/>
    <path fill="#593123" d="M 1291.05 74.589 C 1292.22 75.991 1293.43 75.54 1295.18 75.21 L 1295.13 78.02 L 1292.63 78.04 L 1292.23 78.573 C 1297.24 83.761 1302.87 82.439 1308.75 84.279 C 1309.29 84.448 1309.22 85.222 1309.32 85.949 C 1308.36 87.92 1307.53 88.23 1305.39 88.396 L 1304.19 86.961 C 1302.87 85.812 1295.46 83.927 1293.43 83.621 C 1292.61 83.18 1292.23 82.284 1291.66 81.395 C 1290.28 79.165 1288.57 77.616 1286.29 76.362 C 1288.29 76.138 1289.58 75.969 1291.05 74.589 Z" style="stroke-width: 1;"/>
    <path fill="#CDC1BD" d="M 1291.05 74.589 L 1291.31 73.775 L 1292.76 74.522 L 1292.6 73.665 C 1289.02 71.336 1287.9 67.419 1287.19 63.315 C 1287.12 62.935 1287.06 62.553 1287.01 62.17 C 1288 64.416 1288.98 66.667 1289.95 68.924 C 1296.66 73.086 1297.75 73.393 1306.01 71.888 C 1307.53 71.61 1308.32 71.341 1309.87 71.672 C 1308.06 72.748 1301.99 73.806 1299.5 74.485 C 1297.69 73.901 1296.35 73.478 1294.62 72.719 L 1293.96 73.042 L 1295.18 75.21 C 1293.43 75.54 1292.22 75.991 1291.05 74.589 Z" style="stroke-width: 1;"/>
    <path fill="#A2857E" d="M 1293.43 83.621 C 1295.46 83.927 1302.87 85.812 1304.19 86.961 C 1300.55 87.165 1296.43 85.658 1293.43 83.621 Z" style="stroke-width: 1;"/>
    <path fill="#F0EAE9" d="M 1277.72 82.896 C 1278.68 85.676 1279.33 87.149 1279.59 90.105 L 1278.71 92.648 C 1278.44 89.141 1277.32 86.294 1277.72 82.896 Z" style="stroke-width: 1;"/>
    <path fill="#A2857E" d="M 1286.29 76.362 C 1288.57 77.616 1290.28 79.165 1291.66 81.395 C 1288.98 79.866 1287.83 79.012 1286.29 76.362 Z" style="stroke-width: 1;"/>
    <path fill="white" d="M 1068.8 -439.07 C 1075.82 -437.54 1081.36 -434.45 1084.74 -428.09 C 1096.94 -405.11 1103.74 -384.67 1123.99 -366.63 C 1136.98 -355.06 1149.18 -347.21 1164.36 -338.26 C 1176.64 -331.01 1188.96 -323.83 1201.33 -316.72 C 1210.4 -311.48 1220.72 -305.77 1229.3 -299.89 C 1250.37 -285.51 1269.72 -268.78 1286.99 -250.02 C 1334.63 -197.64 1371.31 -120.79 1355.51 -48.815 C 1351.66 -31.334 1335.42 14.369 1322.77 25.936 C 1304.63 42.53 1262.11 60.827 1237.63 67.474 C 1223.22 71.388 1211.78 75.458 1197.18 71.241 C 1178.92 66.897 1151.96 51.081 1139.87 36.329 C 1148.59 -7.568 1148.51 -45.363 1136.74 -88.915 C 1130.96 -110.31 1123.23 -128.13 1115.14 -148.59 C 1110.49 -160.35 1102.73 -179.19 1101.49 -191.54 C 1099.38 -212.55 1104.01 -232.59 1114.01 -250.93 L 1114.62 -251.81 C 1119.88 -265.79 1115.35 -262.97 1112.72 -275.57 C 1108.01 -298.16 1104.26 -322.73 1096 -344.34 C 1097.77 -336.41 1099.02 -327.38 1100.41 -319.29 L 1107.75 -276.71 C 1095.39 -286.38 1083.7 -293.16 1068.55 -283.68 C 1077.58 -316.49 1075.78 -363.76 1066.79 -396.45 C 1065.3 -401.88 1052.74 -434.33 1052.75 -434.92 C 1053.26 -435.34 1053.81 -435.77 1054.52 -435.81 C 1079.02 -437.13 1081.27 -422.01 1088.88 -404 C 1097.09 -384.56 1110.21 -357.5 1127.23 -344.89 C 1125.09 -349.1 1122.9 -352.85 1120.18 -356.73 C 1106.45 -376.32 1096.68 -397.89 1087.29 -419.78 C 1083.06 -429.65 1078.58 -434.54 1068.55 -438.28 L 1068.8 -439.07 Z" style="stroke-width: 1;"/>
    <path fill="#60362C" d="M 1115.8 -245.05 L 1117.37 -245.05 C 1120.21 -237.85 1123.13 -226.81 1125.53 -219.3 C 1131.92 -199.4 1137.09 -179.01 1143.1 -159.01 C 1146.87 -146.48 1151.89 -133.06 1156.39 -120.53 C 1173.59 -72.652 1192.9 -24.245 1222.03 17.759 C 1231.63 31.607 1241.6 41.128 1253.65 52.608 C 1249.86 51.006 1245.81 48.723 1242.53 46.257 C 1193.38 9.231 1167.45 -53.493 1148.87 -109.44 C 1142.13 -129.35 1136.19 -149.53 1131.06 -169.93 C 1124.8 -195.48 1120.33 -219.24 1115.8 -245.05 Z" style="stroke-width: 1;"/>
    <path fill="#684435" d="M 1114.62 -251.81 C 1115.91 -249.77 1116.58 -247.36 1117.37 -245.05 L 1115.8 -245.05 C 1115.29 -247.71 1115.19 -248.53 1114.01 -250.93 L 1114.62 -251.81 Z" style="stroke-width: 1;"/>
    <path fill="#60362C" d="M 1136.35 -324.3 C 1148.81 -318.93 1189.79 -265.19 1199.91 -251.82 C 1212.55 -235.12 1230.33 -204.73 1239.23 -185.62 C 1266.63 -126.73 1294.94 -65.943 1291.37 0.681 C 1290.7 13.187 1290.01 25.343 1285.81 37.276 C 1285.3 38.861 1284.46 40.842 1283.84 42.431 C 1286.73 4.585 1284.06 -22.927 1276.68 -60.671 C 1271.68 -86.268 1265.2 -113.32 1255.49 -137.62 C 1239.18 -178.43 1213.67 -217.34 1189.08 -253.7 C 1179.64 -267.66 1170.25 -281.58 1160.21 -295.11 C 1152.78 -305.14 1143.86 -314.32 1136.35 -324.3 Z" style="stroke-width: 1;"/>
    <path fill="white" d="M 1075.77 -273.65 L 1081.98 -270.09 C 1068.81 -251.57 1056.21 -232.68 1043.26 -214.01 C 1036.91 -204.84 1028.8 -191.54 1020.84 -184.09 C 1012.82 -176.6 974.857 -170.28 962.731 -167.34 C 952.541 -164.88 942.283 -162.06 932.26 -158.99 C 915.581 -153.87 898.916 -147.5 883.555 -139.18 C 837.759 -114.37 802.528 -84.386 787.483 -32.752 C 781.888 -13.548 779.099 16.614 789.306 34.755 C 794.761 44.452 805.307 53.833 816.19 56.733 C 829.358 60.242 842.501 54.894 853.757 48.256 C 852.891 52.196 852.505 56.412 853.061 60.419 C 854.309 69.415 860.577 76.806 867.643 82.062 C 880.604 91.702 896.01 92.857 911.523 90.48 C 949.339 84.685 995.086 46.37 1017.26 15.899 C 1044.02 -20.87 1060.19 -73.026 1046.51 -117.63 C 1040.26 -137.99 1029.92 -156.95 1026.6 -178.16 C 1031.51 -187.67 1038.04 -196.31 1044.04 -205.14 L 1070.23 -243.89 C 1075.85 -252.2 1081.76 -260.43 1086.85 -269.07 C 1091.11 -266.61 1095.44 -264.24 1099.82 -261.99 C 1094.09 -254.96 1089.44 -247.96 1085.4 -239.83 C 1066.69 -197.51 1081.08 -166.55 1088.09 -125.24 C 1107.24 -12.408 1028.81 95.424 920.245 123.692 C 853.092 141.178 770.866 120.804 752.805 45.28 C 744.316 9.781 751.496 -23.04 767.22 -54.944 C 798.647 -122.2 861.346 -167.99 930.583 -190.86 C 952.454 -198.15 978.114 -203.21 999.252 -211.95 C 1026.43 -223.19 1060.37 -248.1 1075.77 -273.65 Z" style="stroke-width: 1;"/>
    <path fill="white" d="M 1103.17 -402.39 C 1107.84 -395.67 1113.99 -387.77 1120.59 -382.87 C 1146.83 -363.4 1185.33 -355.69 1216.41 -346.43 C 1227.84 -343.01 1239.07 -338.96 1250.04 -334.31 C 1320.02 -304.45 1384.2 -255.35 1402.94 -178.1 C 1408.75 -154.31 1409.55 -129.58 1405.3 -105.46 C 1398.84 -69.763 1383.35 -33.622 1360.94 -4.314 C 1355.23 3.148 1342.45 10.978 1335.16 17.681 C 1364.53 -38.716 1375.88 -91.386 1356.81 -153.03 C 1333.18 -229.36 1275.06 -285.37 1204.9 -320.11 C 1174.5 -335.16 1141.02 -353.79 1118.34 -379.27 C 1111.36 -387.3 1108.16 -393.65 1102.39 -401.55 L 1103.17 -402.39 Z" style="stroke-width: 1;"/>
    <path fill="white" d="M 1100.88 -156.24 C 1103.08 -151.11 1104.61 -145.49 1106.35 -140.18 C 1111.15 -125.43 1115.58 -110.57 1118.65 -95.355 C 1131.28 -32.906 1124.75 46.268 1088.73 100.385 C 1063.73 137.936 1029.48 160.081 985.386 168.808 C 936.15 178.792 885.013 172.804 839.416 151.714 C 831.532 148.07 823.029 144.311 815.821 139.472 C 829.57 144.552 842.664 151.222 856.658 155.649 C 893.069 167.165 935.155 166.205 971.321 154.441 C 1005.73 143.248 1040.7 122.679 1063.94 94.515 C 1073.39 83.062 1080.93 70.244 1087.66 57.053 C 1092.39 47.471 1106.17 15.577 1105.73 6.083 C 1104.69 8.685 1103.88 11.37 1102.93 14.007 C 1083.2 69.155 1042.3 114.159 989.28 139.05 C 957.404 153.935 915.836 163.159 880.815 157.812 C 866.045 155.558 852.414 150.894 838.431 145.828 L 838.312 145.475 C 851.776 148.445 866.254 149.115 879.99 148.591 C 944.237 146.142 1003.71 115.742 1047.09 68.76 C 1090.22 22.047 1115.24 -41.442 1110.08 -105.41 C 1109.52 -112.81 1108.37 -120.15 1106.63 -127.36 C 1104.49 -136.41 1101.17 -146.38 1100.88 -155.69 C 1100.88 -155.87 1100.88 -156.06 1100.88 -156.24 Z" style="stroke-width: 1;"/>
    <path fill="#4D4646" d="M 1113.54 -45.564 L 1113.96 -41.334 C 1113.62 -35.897 1111.83 -22.256 1110.5 -16.975 L 1109.82 -16.914 C 1110.57 -26.173 1113.04 -36.299 1113.54 -45.564 Z" style="stroke-width: 1;"/>
    <path fill="#A19C9B" d="M 1114.23 -50.95 C 1114.41 -47.364 1114.74 -44.832 1113.96 -41.334 L 1113.54 -45.564 C 1113.69 -47.575 1113.9 -48.955 1114.23 -50.95 Z" style="stroke-width: 1;"/>
    <path fill="#A19C9B" d="M 1110.5 -16.975 C 1110.33 -15.617 1110.1 -13.704 1109.16 -12.847 C 1109.01 -14.617 1109.32 -15.234 1109.82 -16.914 L 1110.5 -16.975 Z" style="stroke-width: 1;"/>
    <path fill="white" d="M 1107.02 -405.02 C 1126.48 -382.17 1158.47 -377.44 1186.27 -372.06 C 1210.77 -367.32 1235.73 -363.44 1259.67 -356.32 C 1299.8 -344.39 1337.33 -324.17 1366.77 -294.12 C 1404.56 -255.6 1431.48 -203.93 1429.88 -149.04 C 1428.7 -108.86 1417.21 -72.13 1393.24 -39.681 C 1388.69 -33.514 1383.01 -25.132 1377.57 -19.876 C 1396.52 -51.177 1408.81 -81.923 1411.94 -118.61 C 1419.52 -207.35 1367.09 -276.97 1292.52 -318.58 C 1282.31 -324.29 1272.97 -329.43 1262.15 -333.96 C 1245.75 -340.64 1229.01 -346.43 1211.98 -351.3 C 1184.89 -359.27 1153.14 -366.58 1129.56 -382.04 C 1120.08 -388.25 1113.07 -396.21 1105.89 -404.78 L 1107.02 -405.02 Z" style="stroke-width: 1;"/>
    <path fill="white" d="M 956.757 -161.2 C 956.888 -150.79 961.174 -149.44 965.788 -140.72 C 968.381 -135.83 967.304 -131.92 965.657 -126.98 C 959.767 -134.71 954.457 -143.75 948.501 -151.37 C 947.773 -152.29 946.696 -152.25 945.726 -152.15 C 943.826 -147.56 957.495 -130.34 959.322 -123.9 C 958.367 -121.98 957.713 -119.38 955.407 -119.66 C 954.012 -121.21 952.657 -126.25 951.806 -128.69 C 951.651 -128.78 949.931 -129.87 949.833 -129.91 C 945.604 -131.35 928.767 -148.91 925.101 -144.24 C 926.475 -139.85 929.559 -130.29 932.939 -127.24 C 937.63 -123.02 946.849 -118.44 946.827 -111.25 C 944.451 -105.13 936.662 -108.79 932.66 -110.54 C 930.354 -113.58 929.592 -115.92 928.395 -119.43 L 928.308 -120.08 C 925.149 -123.42 921.368 -126.92 919.629 -131.12 L 920 -131.91 L 921.588 -133.31 L 920.954 -133.76 C 917.402 -136.29 913.791 -141.69 912.266 -142.15 C 911.673 -141.59 911.263 -141.42 911.391 -140.19 C 912.25 -132 919.629 -124.54 923.948 -118.26 C 925.028 -116.69 928.903 -106.44 929.476 -104.44 C 922.276 -99.21 917.88 -125.17 914.855 -126.51 C 912.274 -121.94 915.573 -116.99 917.06 -112.6 C 918.758 -107.59 919.622 -102.22 921.634 -97.348 C 923.558 -93.492 926.693 -89.981 928.724 -85.704 C 928.503 -83.722 928.314 -81.542 927.939 -79.599 L 926.082 -79.488 L 925.527 -79.902 C 923.196 -80.422 921.881 -80.426 920.348 -82.192 C 919.26 -79.957 919.757 -80.162 917.971 -78.941 C 907.62 -78.784 898.089 -102.51 896.993 -102.85 C 893.132 -98.343 901.281 -86.135 898.951 -82.683 C 892.439 -79.079 882.961 -83.823 879.647 -89.677 C 874.829 -98.188 867.392 -106.43 856.627 -106.49 L 856.09 -105.98 C 857.763 -102.66 864.703 -99.45 867.688 -96.797 C 869.722 -94.993 870.653 -93.861 872.313 -91.76 C 870.614 -93.034 867.919 -95.378 865.986 -95.768 C 864.831 -91.873 877.972 -77.21 881.726 -74.753 C 888.444 -70.355 899.342 -69.995 902.651 -62.177 C 903.059 -61.064 903.196 -57.286 903.256 -56.02 C 895.637 -65.113 881.447 -74.486 869.588 -76.074 C 869.036 -76.148 868.148 -75.518 867.727 -75.189 L 867.727 -74.218 C 871.4 -70.64 885.011 -67.683 884.918 -58.265 C 884.899 -56.381 884.715 -55.835 883.404 -54.487 C 876.249 -51.301 858.425 -65.315 850.956 -68.164 C 845.892 -70.096 830.32 -82.51 825.269 -81.225 L 824.832 -80.493 C 825.237 -79.768 849.758 -65.834 853.27 -63.263 L 852.358 -62.468 C 848.593 -64.429 842.222 -67.852 837.904 -67.469 L 837.461 -66.829 C 838.958 -65.316 842.682 -64.418 844.852 -63.394 C 850.207 -60.866 854.237 -57.814 857.994 -53.253 L 857.188 -52.388 C 854.532 -54.576 843.234 -63.771 839.891 -61.352 C 841.209 -58.212 845.439 -58.448 849.724 -55.104 C 857.083 -49.36 862.046 -43.123 868.933 -36.813 C 854.863 -40.934 846.545 -42.839 831.76 -41.209 C 827.782 -40.77 816.383 -41.159 813.725 -37.717 L 814.04 -37.459 L 813.772 -37.956 L 815.142 -37.165 C 816.151 -36.575 828.395 -36.425 830.392 -36.386 C 821.408 -34.048 818.307 -29.85 810.106 -26.159 C 801.935 -22.482 804.6 -30.283 800.352 -34.613 C 799.047 -35.943 795.906 -37.144 794.048 -37.935 C 796.816 -46.237 802.534 -56.841 806.562 -64.915 C 812.417 -61.462 825.518 -62.446 831.768 -56.698 C 833.624 -56.075 835.388 -55.015 836.898 -54.691 L 838.428 -55.868 C 838.778 -64.14 814.557 -67.008 808.56 -67.52 C 808.913 -68.198 809.278 -68.869 809.654 -69.534 C 811.97 -73.618 824.162 -91.099 828.033 -92.182 C 830.961 -89.479 838.187 -88.26 843.432 -84.442 C 851.072 -78.881 854.758 -73.709 862.326 -67.871 C 859.895 -105.38 838.501 -89.205 832.818 -96.605 C 833.247 -100.36 858.058 -118.85 860.465 -118.89 C 861.415 -117.89 861.247 -118.06 861.985 -116.88 C 863.592 -117.51 864.413 -117.31 866.128 -117.19 C 871.156 -115.95 872.24 -115.16 876.209 -111.84 C 876.756 -111.39 878.326 -109.76 878.828 -109.52 C 879.29 -109.75 878.992 -109.68 879.747 -109.43 C 881.959 -105.16 879.721 -103.5 879.444 -100.33 L 880.172 -100.05 L 881.048 -100.5 C 883.276 -104.91 881.504 -109.98 878.899 -113.8 L 878.468 -114.42 L 879.211 -114.74 C 875.293 -119.84 872.482 -122.05 866.228 -123.16 C 890.785 -141.72 927.37 -153.22 956.757 -161.2 Z" style="stroke-width: 1;"/>
    <path fill="#593123" d="M 920.348 -82.192 C 918.787 -84.885 918.169 -91.276 916.463 -94.599 C 914.129 -99.14 910.305 -103.48 905.61 -105.59 C 899.062 -108.53 892.165 -109.55 887.863 -115.99 C 886.54 -117.97 883.426 -122.62 883.744 -125.03 L 884.492 -125.35 C 887.963 -124.55 891.594 -120.76 895.128 -119.54 C 902.632 -116.96 907.672 -116.53 914.846 -112.75 C 916.423 -109.62 920.129 -104.35 916.468 -101.93 L 916.067 -101.93 C 919.452 -94.51 922.728 -87.579 925.527 -79.902 C 923.196 -80.422 921.881 -80.426 920.348 -82.192 Z" style="stroke-width: 1;"/>
    <path fill="white" d="M 892.413 -117.48 C 897.629 -115.31 902.931 -113.61 908.223 -111.63 L 908.659 -110.84 C 909.727 -108.95 910.815 -108.51 910.842 -106.98 L 910.733 -106.82 C 903.916 -110.89 896.734 -112.17 891.97 -115.84 L 892.413 -117.48 Z" style="stroke-width: 1;"/>
    <path fill="#F0EAE9" d="M 908.223 -111.63 C 915.89 -109.99 911.261 -106.91 916.468 -101.93 L 916.067 -101.93 L 910.733 -106.82 L 910.842 -106.98 C 910.815 -108.51 909.727 -108.95 908.659 -110.84 L 908.223 -111.63 Z" style="stroke-width: 1;"/>
    <path fill="#F0EAE9" d="M 891.97 -115.84 C 890.708 -117.01 890.591 -116.99 889.845 -118.6 L 890.452 -118.75 L 892.413 -117.48 L 891.97 -115.84 Z" style="stroke-width: 1;"/>
    <path fill="#593123" d="M 837.006 -52.263 C 828.994 -48.222 820.963 -48.025 812.119 -48.021 C 809.308 -48.02 805.717 -47.809 804.147 -50.43 L 804.453 -51.416 C 808.901 -55.255 825.256 -57.141 831.768 -56.698 C 834.433 -52.939 835.803 -55.682 837.006 -52.263 Z" style="stroke-width: 1;"/>
    <path fill="white" d="M 825.743 -54.339 C 826.952 -54.456 828.196 -54.764 829.297 -54.131 C 826.847 -51.401 820.343 -51.038 816.804 -50.759 C 814.26 -50.648 811.717 -50.692 809.171 -50.713 C 814.727 -52.975 819.77 -53.864 825.743 -54.339 Z" style="stroke-width: 1;"/>
    <path fill="#593123" d="M 861.985 -116.88 C 863.592 -117.51 864.413 -117.31 866.128 -117.19 C 871.156 -115.95 872.24 -115.16 876.209 -111.84 C 876.756 -111.39 878.326 -109.76 878.828 -109.52 C 879.29 -109.75 878.992 -109.68 879.747 -109.43 C 881.959 -105.16 879.721 -103.5 879.444 -100.33 L 880.172 -100.05 L 881.048 -100.5 C 883.276 -104.91 881.504 -109.98 878.899 -113.8 L 878.468 -114.42 L 879.211 -114.74 C 882.884 -111.75 884.429 -101.63 880.978 -98.629 C 878.472 -99 877.591 -101.39 876.213 -103.77 C 872.766 -109.71 866.261 -111.91 861.985 -116.88 Z" style="stroke-width: 1;"/>
    <path fill="white" d="M 866.128 -117.19 C 871.156 -115.95 872.24 -115.16 876.209 -111.84 C 876.756 -111.39 878.326 -109.76 878.828 -109.52 C 879.6 -107.54 880.124 -105.36 879.441 -103.27 C 877.77 -102.98 877.712 -106.86 875.989 -109.1 C 873.3 -112.61 869.682 -114.78 866.128 -117.19 Z" style="stroke-width: 1;"/>
    <path fill="#684435" d="M 921.588 -133.31 C 925.031 -130.65 930.608 -124 930.136 -119.47 C 929.057 -119.02 929.635 -119.07 928.395 -119.43 L 928.308 -120.08 C 925.149 -123.42 921.368 -126.92 919.629 -131.12 L 920 -131.91 L 921.588 -133.31 Z" style="stroke-width: 1;"/>
    <path fill="#F0EAE9" d="M 920 -131.91 C 923.241 -129.9 927.167 -123.72 928.308 -120.08 C 925.149 -123.42 921.368 -126.92 919.629 -131.12 L 920 -131.91 Z" style="stroke-width: 1;"/>
    <path fill="#684435" d="M 831.768 -56.698 C 833.624 -56.075 835.388 -55.015 836.898 -54.691 C 841.08 -52.198 852.01 -49.66 853.208 -44.218 L 852.863 -43.543 C 851.167 -43.722 847.057 -47.383 844.895 -48.615 C 841.809 -50.373 840.351 -51.027 837.006 -52.263 C 835.803 -55.682 834.433 -52.939 831.768 -56.698 Z" style="stroke-width: 1;"/>
    <path fill="white" d="M 1081.25 -282.94 C 1087.03 -283.54 1100.76 -272.28 1105 -268.05 C 1106.37 -266.68 1108.35 -263.56 1109.44 -261.83 C 1104.57 -254.53 1098.39 -248 1094.75 -239.88 C 1075.69 -197.36 1095.01 -153.22 1098.67 -110.71 C 1103.79 -51.77 1085.21 6.782 1047.03 51.983 C 1006.75 99.76 953.069 131.663 890.547 137.79 C 798.413 146.818 728.082 85.009 743.356 -9.767 C 745.411 -22.515 749.651 -35.375 754.74 -47.22 C 781.4 -109.27 834.233 -158.17 895.162 -186.04 C 971.442 -219.59 1009.52 -205.97 1068.3 -273.76 C 1069.39 -274.79 1069.6 -275.36 1070.82 -275.59 C 1070.89 -272.44 1062.74 -263.13 1060.32 -260.35 C 1040.85 -237.86 1012.35 -220.41 984.253 -210.89 C 968.981 -205.72 952.932 -202.16 937.528 -197.35 C 916.699 -190.9 896.51 -182.54 877.219 -172.37 C 838.051 -151.44 804.492 -121.39 779.375 -84.765 C 756.016 -50.052 738.713 -2.523 747.545 39.305 C 753.905 69.423 768.366 94.29 794.183 111.581 C 826.997 133.558 874.862 137.368 913.016 129.448 C 969.479 117.727 1025.52 79.332 1057.36 31.31 C 1085.74 -11.477 1099.58 -65.081 1093.65 -116.19 C 1091.65 -133.49 1087.07 -151.07 1083.44 -168.25 C 1077.33 -195.44 1079.81 -222.55 1093.98 -246.85 C 1096.03 -250.37 1105.75 -261.93 1105.1 -265.11 C 1102.79 -266.92 1077.92 -278.81 1073.7 -280.87 C 1076.59 -281.97 1078.29 -282.3 1081.25 -282.94 Z" style="stroke-width: 1;"/>
    <path fill="white" d="M 1041.97 -111.55 C 1043.73 -106.64 1044.72 -98.872 1045.56 -93.541 C 1035.81 -100.36 1020.43 -102.92 1008.81 -100.1 C 1007.73 -99.84 1007.68 -99.27 1007.38 -98.428 C 1010.98 -90.061 1039.23 -91.697 1044.94 -89.371 C 1047.17 -85.828 1045.04 -71.317 1044.26 -66.79 C 1038.66 -70.62 1022.98 -80.463 1016.86 -82.162 C 1014.88 -81.154 1010.18 -82.689 1007.28 -81.67 C 1006.52 -80.211 1006.52 -80.329 1006.74 -78.702 C 1008.07 -77.473 1011.04 -77.628 1012.68 -75.392 L 1013.08 -75.216 C 1025.21 -70.03 1033.4 -70.428 1044.08 -60.006 C 1041.58 -45.25 1036.55 -28.972 1029.48 -15.768 C 1027.59 -12.221 1026.65 -8.248 1023.52 -5.492 C 1018.23 -4.779 1010.77 -9.057 1006.08 -11.357 C 996.272 -16.162 987.228 -20.439 976.13 -20.665 C 970.61 -25.955 967.353 -27.839 962.586 -34.034 C 966.643 -31.679 981.024 -22.472 985.248 -24.478 L 985.372 -25.371 C 984.317 -26.704 966.902 -35.625 963.342 -37.534 C 954.839 -42.094 938.521 -44.193 938.958 -57.781 C 940.782 -71.802 959.782 -71.232 969.275 -68.923 L 968.926 -67.909 C 961.455 -69.074 950.078 -69.419 944.501 -64.587 C 933.701 -55.181 946.378 -46.426 956.601 -46.26 C 968.146 -46.073 977.24 -48.93 981.263 -35.318 C 983.283 -28.485 999.633 -22.34 1005.68 -25.225 C 1006.42 -26.716 1006.34 -25.953 1005.83 -27.593 C 1001.82 -31.998 990.443 -35.536 984.963 -38.308 C 984.464 -38.56 982.652 -41.322 982.234 -41.95 C 984.368 -41.153 986.757 -40.027 988.957 -40.026 L 989.725 -40.581 L 989.747 -41.384 C 987.625 -42.086 984.999 -43.648 982.976 -44.742 C 982.946 -44.172 983.055 -44.422 982.611 -44.008 C 981.532 -44.838 980.485 -45.689 979.26 -46.295 C 978.551 -47.56 978.633 -46.917 978.929 -48.278 C 980.198 -48.885 979.495 -48.713 981.264 -48.191 C 983.037 -52.836 998.136 -53.298 1002.81 -55.929 C 1005.26 -57.311 1009.04 -60.725 1011.32 -60.909 C 1012.55 -61.653 1013.4 -62.668 1013.32 -64.148 C 1010.04 -64.576 1005.16 -60.011 1002.51 -59.372 C 992.569 -56.976 985.531 -56.201 976.427 -50.801 C 966.486 -51.863 951.195 -46.449 944.725 -57.067 C 945.431 -72.273 1000.44 -56.418 1009.03 -67.315 L 1008.75 -68.246 C 1006.13 -69.927 993.042 -72.215 989.539 -72.166 C 979.186 -72.02 974.885 -71.19 964.929 -74.281 C 975.673 -81.866 983.019 -87.117 996.025 -87.051 C 999.634 -87.033 1011.98 -88.2 1013.7 -91.262 C 1013.27 -92.118 1012.97 -92.856 1011.72 -92.859 C 1005.14 -92.877 983.082 -91.482 981.427 -100.28 C 983.182 -102.99 989.547 -100.5 992.988 -101 C 998.427 -101.79 1004.36 -104.34 1009.7 -105.11 C 1021.38 -106.81 1030.69 -108 1041.97 -111.55 Z" style="stroke-width: 1;"/>
    <path fill="#593123" d="M 982.976 -44.742 C 982.946 -44.172 983.055 -44.422 982.611 -44.008 C 981.532 -44.838 980.485 -45.689 979.26 -46.295 C 978.551 -47.56 978.633 -46.917 978.929 -48.278 C 980.198 -48.885 979.495 -48.713 981.264 -48.191 C 983.037 -52.836 998.136 -53.298 1002.81 -55.929 C 1005.26 -57.311 1009.04 -60.725 1011.32 -60.909 C 1002.13 -52.431 993.277 -52.793 981.703 -49.266 C 987.012 -47.491 995.13 -44.574 1000.7 -45.048 C 1009.21 -45.772 1027.3 -53.009 1034.13 -44.603 C 1035.09 -40.822 1032.11 -39.209 1028.75 -38.981 C 1023.99 -38.658 1019.07 -42.091 1014.07 -42.017 C 1003.95 -42.384 1001.78 -39.805 991.322 -42.177 L 989.747 -41.384 C 987.625 -42.086 984.999 -43.648 982.976 -44.742 Z" style="stroke-width: 1;"/>
    <path fill="#F0EAE9" d="M 982.976 -44.742 C 981.846 -45.771 980.698 -46.78 979.533 -47.768 C 981.997 -46.493 988.845 -42.776 991.322 -42.177 L 989.747 -41.384 C 987.625 -42.086 984.999 -43.648 982.976 -44.742 Z" style="stroke-width: 1;"/>
    <path fill="white" d="M 1017.29 -45.313 C 1022.34 -45.842 1026.76 -45.865 1031.15 -42.947 L 1030.73 -42.448 C 1026.28 -41.46 1021.62 -43.499 1017.37 -44.748 L 1017.29 -45.313 Z" style="stroke-width: 1;"/>
    <path fill="#593123" d="M 1012.68 -75.392 C 1009.25 -76.227 1008.53 -76.625 1005.6 -78.456 L 1004.84 -78.934 C 1002.58 -78.767 1002.31 -78.639 1000.95 -80.279 C 1002.17 -83.697 1013.86 -83.176 1016.86 -82.162 C 1014.88 -81.154 1010.18 -82.689 1007.28 -81.67 C 1006.52 -80.211 1006.52 -80.329 1006.74 -78.702 C 1008.07 -77.473 1011.04 -77.628 1012.68 -75.392 Z" style="stroke-width: 1;"/>
    <path fill="#593123" d="M 1001.65 -40.514 C 1003.53 -40.675 1005.29 -40.781 1007.15 -40.357 C 1014.15 -38.752 1027.53 -28.503 1030.41 -22.109 C 1031.13 -20.497 1030.55 -19.746 1030.02 -18.193 C 1026.82 -18.326 1025.44 -21.185 1023.57 -23.464 C 1019.37 -28.574 1014.97 -33.297 1008.92 -36.175 C 1007 -37.085 1004.6 -37.346 1002.83 -38.417 C 1001.82 -39.025 1001.9 -39.432 1001.65 -40.514 Z" style="stroke-width: 1;"/>
    <path fill="white" d="M 934.722 -47.864 C 940.881 -41.755 948.602 -37.458 957.04 -35.442 C 962.497 -25.925 965.89 -23.64 975.344 -18.218 L 977.377 -14.094 C 986.739 -8.691 1009.28 -0.188 1019.69 2.357 C 1011.07 17.433 989.042 40.646 974.79 50.52 C 970.261 48.426 962.503 45.18 958.707 42.621 C 941.643 31.118 936.99 16.386 919.522 5.096 C 917.286 3.563 915.248 2.381 914.398 -0.236 C 914.337 -0.622 913.411 -3.863 913.232 -4.634 L 912.777 -4.728 C 912.103 -6.019 912.352 -5.335 912.528 -7.065 L 913.086 -6.952 L 914.53 -7.981 C 914.267 -13.793 918.473 -15.477 923.716 -16.182 C 932.458 -17.357 942.719 -9.37 948.669 -3.609 C 951.932 -0.451 954.326 4.168 958.216 6.859 C 963.825 10.92 970.816 11.886 976.791 15.478 C 983.317 19.402 987.478 25.316 993.257 30.027 L 994.661 29.782 C 997.546 26.748 994.57 22.02 992.926 18.971 C 986.07 6.264 972.591 3.317 960.283 -1.562 C 956.931 -2.891 952.919 -6.959 950.306 -9.45 L 950.989 -10.057 C 961.287 -8.419 962.816 -8.656 973.026 -4.143 C 980.049 -1.038 987.496 8.927 992.373 8.156 C 993.215 4.867 987.273 0.18 985.104 -1.932 C 977.345 -9.487 967.044 -11.075 957.062 -13.822 C 943.861 -17.773 937.254 -35.304 934.722 -47.864 Z" style="stroke-width: 1;"/>
    <path fill="#593123" d="M 913.086 -6.952 L 914.53 -7.981 C 918.736 1.3 929.318 5.157 938.566 7.466 C 940.152 6.93 942.044 6.227 943.639 5.813 C 948.122 8.194 950.953 10.806 955.195 13.464 C 960.636 16.873 971.16 17.685 973.373 23.937 C 972.89 28.304 966.7 26.914 963.497 26.643 C 952.768 25.737 950.333 13.908 942.767 9.833 L 942.449 10.987 C 936.73 11.648 925.734 7.413 920.515 4.358 L 919.522 5.096 C 917.286 3.563 915.248 2.381 914.398 -0.236 C 914.337 -0.622 913.411 -3.863 913.232 -4.634 L 912.777 -4.728 C 912.103 -6.019 912.352 -5.335 912.528 -7.065 L 913.086 -6.952 Z" style="stroke-width: 1;"/>
    <path fill="#F0EAE9" d="M 914.398 -0.236 C 916.726 1.128 918.36 2.822 920.515 4.358 L 919.522 5.096 C 917.286 3.563 915.248 2.381 914.398 -0.236 Z" style="stroke-width: 1;"/>
    <path fill="#C0A9A6" d="M 913.232 -4.634 L 912.777 -4.728 C 912.103 -6.019 912.352 -5.335 912.528 -7.065 L 913.086 -6.952 C 913.195 -6.023 913.333 -5.541 913.232 -4.634 Z" style="stroke-width: 1;"/>
    <path fill="#F0EAE9" d="M 952.27 15.252 C 957.412 17.34 966.348 19.848 969.713 24.227 C 969 24.277 968.296 24.292 967.583 24.244 C 961.497 23.83 956.12 19.678 952.27 15.252 Z" style="stroke-width: 1;"/>
    <path fill="white" d="M 1164.3 -384.28 C 1189.54 -382.07 1215.86 -381.33 1240.81 -377.49 C 1298.34 -368.63 1351.25 -343.59 1389.09 -298.4 C 1423.23 -257.62 1442.52 -203.18 1437.93 -149.87 C 1436.93 -138.35 1434.63 -124.62 1430.87 -113.8 L 1430.91 -114.43 C 1431.86 -127.79 1434.51 -139.31 1434.71 -153.13 C 1435.68 -220.81 1401.42 -281.2 1348.13 -321.45 C 1315.09 -346.4 1289.44 -355.83 1249.77 -365.68 C 1233.31 -369.86 1216.71 -373.5 1200.01 -376.6 C 1187.74 -378.92 1174.54 -380.77 1162.47 -383.28 L 1164.3 -384.28 Z" style="stroke-width: 1;"/>
    <path fill="white" d="M 828.239 -3.09 C 839.222 -8.737 843.489 -8.603 855.868 -8.641 C 858.201 -5.878 858.896 -4.287 859.889 -0.787 C 854.535 28.792 821.354 14.244 811.301 30.506 L 811.497 31.287 C 814.079 31.316 817.622 28.327 820.877 27.452 C 826.57 25.921 832.484 25.413 838.324 24.74 C 839.455 24.411 841.226 24.456 842.476 24.41 L 843.666 24.973 C 846.305 25.41 843.279 25.724 846.5 26.683 C 847.653 26.2 848.449 25.893 849.635 25.507 C 849.176 26.942 827.553 37.116 824.912 38.558 L 824.955 39.189 C 830.185 42.345 854.076 25.989 858.62 22 C 853.116 31.305 847.193 36.471 841.853 47.117 C 839.663 47.961 837.442 48.718 835.193 49.386 C 811.81 56.298 795.05 40.647 788.753 19.3 C 791.468 18.336 792.671 17.956 795.21 16.453 L 795.992 17.383 C 800.069 17.637 805.494 14.668 809.35 12.936 C 805.108 16.632 798.186 23.283 793.488 27.131 C 793.431 27.521 793.374 27.91 793.317 28.3 L 794.199 29.123 C 797.087 29.814 798.224 29.547 800.498 27.654 C 805.621 23.388 809.849 18.338 814.836 13.911 C 818.786 10.405 826.661 6.219 829.546 2.099 C 830.04 0.227 829.577 -0.457 828.915 -2.288 L 828.239 -3.09 Z" style="stroke-width: 1;"/>
    <path fill="#593123" d="M 842.476 24.41 L 843.666 24.973 C 836.028 33.634 809.99 42.63 799.232 37.066 L 798.826 36.175 C 799.885 35.549 818.547 34.93 823.334 33.495 C 831.142 31.154 831.942 28.995 838.016 26.129 L 838.324 24.74 C 839.455 24.411 841.226 24.456 842.476 24.41 Z" style="stroke-width: 1;"/>
    <path fill="#F0EAE9" d="M 838.324 24.74 C 839.455 24.411 841.226 24.456 842.476 24.41 L 838.016 26.129 L 838.324 24.74 Z" style="stroke-width: 1;"/>
    <path fill="#F0EAE9" d="M 805.828 30.645 L 807.985 31.031 L 808.164 31.507 L 806.646 32.493 C 805.657 32.466 805.085 32.63 804.241 32.076 L 805.828 30.645 Z" style="stroke-width: 1;"/>
    <path fill="white" d="M 897.871 3.705 C 903.023 8.428 911.508 18.051 915.219 24.037 C 917.25 27.791 917.836 32.264 919.47 36.151 C 922.501 43.366 927.294 53.5 932.346 59.45 C 935.809 63.528 943.098 66.326 947.488 70.042 C 944.213 72.304 934.306 78.697 930.235 78.419 C 929.537 78.371 929.058 77.178 928.566 76.395 C 928.32 77.861 928.383 78.195 928.717 79.648 C 927.943 79.879 928.263 79.894 927.771 79.812 C 925.307 80.843 920.873 82.002 918.163 82.791 C 916.141 80.176 911.616 76.193 910.247 73.81 C 907.487 69.005 907.637 62.306 904.753 56.996 C 902.132 52.169 898.271 48.292 895.585 43.946 C 891.943 38.053 888.987 29.107 886.585 22.509 C 890.468 16.314 894.23 10.045 897.871 3.705 Z" style="stroke-width: 1;"/>
    <path fill="#593123" d="M 927.771 79.812 C 926.097 78.372 917.447 69.221 916.77 67.422 C 910.156 49.849 900.144 32.755 895.354 14.63 C 894.982 13.226 895.036 11.32 895.869 10.197 C 897.006 10.719 899.289 14.788 900.324 16.112 C 904.113 20.958 910.145 25.034 912.342 30.873 C 913.748 34.608 912.661 40.098 914.467 43.792 C 916.209 47.357 920.307 49.762 921.299 53.801 C 922.639 58.56 921.9 64.05 923.568 68.595 C 924.403 70.871 927.815 73.638 928.566 76.395 C 928.32 77.861 928.383 78.195 928.717 79.648 C 927.943 79.879 928.263 79.894 927.771 79.812 Z" style="stroke-width: 1;"/>
    <path fill="#F0EAE9" d="M 916.551 56.866 C 913.946 52.875 906.293 36.582 905.116 32.111 C 907.513 36.03 914.38 51.037 916.708 52.474 L 916.551 56.866 Z" style="stroke-width: 1;"/>
    <path fill="white" d="M 916.708 52.474 C 919.64 56.465 918.896 59.292 918.802 64.352 C 918.162 62.419 916.816 58.73 916.551 56.866 L 916.708 52.474 Z" style="stroke-width: 1;"/>
    <path fill="white" d="M 1062.01 -368.7 C 1066.15 -351.4 1048.41 -315.7 1042.38 -298.71 C 1035.61 -279.62 1029.69 -264.6 1029.89 -243.99 C 1019.3 -236.37 1009.98 -231.68 998.219 -226.57 C 997.846 -229.52 1000.21 -236.12 1001.03 -239.17 C 1011.13 -276.9 1036.17 -307.41 1053.64 -341.63 C 1057.52 -349.23 1060.66 -360.38 1062.01 -368.7 Z" style="stroke-width: 1;"/>
    <path fill="white" d="M 1081.6 121.032 L 1082.06 120.537 C 1119.08 80.209 1132.39 8.76 1129.8 -44.426 C 1128.89 -63.978 1125.68 -83.355 1120.22 -102.15 C 1119.25 -105.63 1110.14 -133.08 1110.16 -133.22 C 1112.68 -129.77 1116.37 -119.82 1118.33 -115.3 C 1136.49 -73.846 1142.5 -28.086 1135.65 16.651 C 1128.86 60.604 1112.82 89.981 1082.3 121.962 L 1081.6 121.032 Z" style="stroke-width: 1;"/>
    <path fill="white" d="M 1065.18 -383.95 L 1066.34 -383.18 C 1071.5 -353.45 1072.29 -303.03 1060.52 -273.49 C 1058.1 -267.43 1040.19 -252.06 1034.31 -247.24 C 1038.25 -299.02 1072.51 -330.67 1065.18 -383.95 Z" style="stroke-width: 1;"/>
    <path fill="white" d="M 1040.56 -327.98 L 1041.2 -326.84 C 1036.76 -320.81 1031.43 -311.72 1027.08 -305.18 C 1008.38 -276.98 996.167 -256.2 988.989 -222.95 C 981.404 -220.37 972.875 -218.02 965.008 -215.42 C 981.473 -257.15 1013.07 -293.45 1040.56 -327.98 Z" style="stroke-width: 1;"/>
    <path fill="white" d="M 837.485 -32.824 C 841.597 -32.943 846.105 -32.691 850.019 -31.337 C 852.627 -30.435 854.812 -29.001 855.997 -26.435 C 856.709 -24.893 856.86 -23.475 856.221 -21.859 C 855.461 -19.938 853.036 -18.583 851.303 -17.72 C 845.855 -15.006 839.424 -14.679 833.82 -12.229 C 826.502 -9.03 821.276 -3.229 813.065 -1.632 C 806.208 -0.297 797.03 -3.518 791.004 -1.26 L 791.104 -0.794 C 793.244 -0.365 795.241 -1.075 797.317 -1.589 C 798.257 -1.505 797.861 -1.693 798.517 -1.046 C 795.261 0.475 790.44 0.382 786.887 0.526 C 786.828 -4.368 787.535 -8.945 788.354 -13.755 C 789.552 -12.961 790.716 -12.297 792.041 -11.731 C 799.819 -8.41 808.515 -8.098 816.352 -11.414 C 819.157 -12.6 824.417 -15.015 825.164 -18.282 C 825.408 -19.35 825.14 -20.122 824.55 -20.988 C 822.69 -23.717 818.193 -24.185 815.177 -24.632 C 822.822 -29.818 828.228 -32.109 837.485 -32.824 Z" style="stroke-width: 1;"/>
    <path fill="white" d="M 1022.62 -168.22 C 1024.19 -166.53 1040.77 -118.28 1041.92 -112.88 C 1031.17 -121 1025.57 -123.09 1012.12 -124.19 C 1006.81 -124.62 1001.59 -125.12 996.253 -124.96 C 1001.5 -127.6 1007.04 -128.9 1012.79 -129.93 C 1016.63 -130.12 1024.03 -129.46 1027.23 -131.51 C 1028.5 -132.32 1029.38 -133.17 1029.64 -134.67 L 1029.04 -135.27 C 1026.85 -135.46 1025.28 -133.91 1023.15 -133.53 C 1019.87 -132.94 1004.13 -134.52 1001.73 -136.29 C 1002.93 -142.12 1020.34 -145.08 1025.39 -148.49 L 1025.15 -148.91 C 1024.09 -148.84 1023.02 -148.78 1021.96 -148.73 C 1015.01 -148.37 1014.59 -151.76 1007.04 -148.6 C 1012.63 -154.68 1017.54 -161.72 1022.62 -168.22 Z" style="stroke-width: 1;"/>
    <path fill="white" d="M 915.085 8.308 C 919.986 11.249 928.824 16.677 932.081 21.188 C 938.014 29.409 939.238 38.731 948.54 45.148 C 951.325 47.069 957.66 48.206 961.082 49.524 C 964.592 50.876 967.047 52.284 970.342 54.126 C 964.025 58.972 956.62 64.646 949.927 68.89 C 942.127 58.831 937.301 62.79 931.77 50.466 L 934.624 47.953 C 939.013 50.554 946.029 57.683 950.403 55.367 L 950.396 54.728 C 944.814 49.589 921.324 33.491 918.334 27.24 C 920.689 27.518 925.142 31.573 927.724 33.119 C 925.229 28.242 922.582 23.432 920.583 18.325 C 919.093 14.522 917.062 11.824 915.085 8.308 Z" style="stroke-width: 1;"/>
    <path fill="white" d="M 881.382 26.793 C 881.68 26.934 881.889 27.215 882.129 27.441 C 882.593 38.861 876.798 50.541 876.138 62.031 C 875.566 71.981 881.802 78.044 887.859 84.915 C 883.841 83.43 879.923 81.861 876.037 80.056 C 871.784 77.719 867.979 74.646 864.8 70.98 C 861.052 66.57 858.232 61.039 858.883 55.103 C 860.223 42.873 872.744 34.058 881.382 26.793 Z" style="stroke-width: 1;"/>
    <path fill="white" d="M 1137.74 43.204 C 1159.67 60.07 1168.66 68.22 1196.32 77.224 L 1189.18 77.779 C 1173.12 78.505 1145.42 71.298 1131.54 62.408 C 1134.04 56.102 1136.05 49.767 1137.74 43.204 Z" style="stroke-width: 1;"/>
    <path fill="white" d="M 998.787 -144.37 L 999.41 -142.81 C 988.716 -126.95 975.466 -110.14 963.292 -95.303 C 955.367 -85.648 944.29 -77.154 936.437 -67.366 C 930.188 -59.579 927.207 -49.041 922.717 -40.255 C 919.488 -34.375 908.796 -22.245 903.74 -16.395 C 906.917 -25.206 916.163 -38.037 921.303 -46.107 C 932.468 -62.743 942.526 -82.451 955.729 -97.535 C 969.861 -113.68 984.819 -127.76 998.787 -144.37 Z" style="stroke-width: 1;"/>
    <path fill="white" d="M 885.719 32.831 C 889.072 36.757 891.624 57.015 894.303 63.599 C 897.552 71.583 904.308 78.487 912.331 81.736 C 913.379 82.161 914.175 82.429 915.033 83.188 C 914.256 84.214 913.173 84.221 911.959 84.557 C 905.584 85.718 899.628 86.076 893.197 85.233 C 891.68 83.393 890.395 81.251 889.322 79.123 C 885.226 70.995 882.402 52.567 883.183 43.466 C 883.503 39.737 884.548 36.368 885.719 32.831 Z" style="stroke-width: 1;"/>
    <path fill="white" d="M 963.493 -162.67 C 970.106 -164.15 978.349 -165.81 984.808 -167.6 L 985.052 -166.79 C 986.295 -162.71 991.271 -153.45 990.874 -151.07 C 990.461 -150.6 989.832 -149.79 989.372 -149.43 L 987.035 -149.04 C 987.399 -147.33 987.532 -148.1 987.066 -146.59 C 985.809 -147.8 985.077 -149.83 984.329 -151.47 C 983.088 -152.37 982.096 -153.12 980.918 -154.11 C 980.506 -155.81 980.486 -154.9 981.65 -156.87 C 977.303 -157.59 972.889 -162.14 969.478 -161.43 C 968.358 -160.14 968.731 -160.9 968.624 -158.95 C 969.958 -155.42 975.285 -154.51 977.922 -152.12 C 979.722 -150.48 984.702 -145.08 984.675 -142.61 C 983.577 -140.88 984.296 -141.52 982.427 -140.65 C 969.557 -143.83 967.418 -151.12 963.493 -162.67 Z" style="stroke-width: 1;"/>
    <path fill="#684435" d="M 981.65 -156.87 C 984.048 -154.66 987.519 -151.91 989.372 -149.43 L 987.035 -149.04 C 987.399 -147.33 987.532 -148.1 987.066 -146.59 C 985.809 -147.8 985.077 -149.83 984.329 -151.47 C 983.088 -152.37 982.096 -153.12 980.918 -154.11 C 980.506 -155.81 980.486 -154.9 981.65 -156.87 Z" style="stroke-width: 1;"/>
    <path fill="#F0EAE9" d="M 984.329 -151.47 C 985.361 -150.6 986.066 -150 987.035 -149.04 C 987.399 -147.33 987.532 -148.1 987.066 -146.59 C 985.809 -147.8 985.077 -149.83 984.329 -151.47 Z" style="stroke-width: 1;"/>
    <path fill="white" d="M 1015.41 -121.4 L 1016.46 -121.48 C 1019.78 -121.08 1025.99 -119.89 1028.55 -117.85 L 1029.2 -116.88 L 1023.04 -117.48 L 1023.41 -115.29 L 1023.16 -114.81 C 1015.4 -112.02 1005.83 -111.34 997.857 -108.35 C 994.954 -107.26 987.646 -107.2 984.856 -108.81 C 983.55 -113.4 999.536 -117.77 1002.7 -118.66 L 1004.35 -120.85 C 1008.27 -121.21 1011.47 -121.32 1015.41 -121.4 Z" style="stroke-width: 1;"/>
    <path fill="#593123" d="M 1015.41 -121.4 L 1016.46 -121.48 C 1019.78 -121.08 1025.99 -119.89 1028.55 -117.85 L 1029.2 -116.88 L 1023.04 -117.48 C 1018.62 -118.66 1008.61 -118.2 1002.7 -118.66 L 1004.35 -120.85 C 1008.27 -121.21 1011.47 -121.32 1015.41 -121.4 Z" style="stroke-width: 1;"/>
    <path fill="#A2857E" d="M 1016.46 -121.48 C 1019.78 -121.08 1025.99 -119.89 1028.55 -117.85 C 1025.67 -117.79 1018.69 -119.93 1016.46 -121.48 Z" style="stroke-width: 1;"/>
    <path fill="#C0A9A6" d="M 1004.35 -120.85 C 1008.27 -121.21 1011.47 -121.32 1015.41 -121.4 C 1011.87 -119.03 1008.7 -120.2 1004.35 -120.85 Z" style="stroke-width: 1;"/>
    <path fill="white" d="M 858.669 29.154 C 861.158 25.411 865.842 18.762 867.344 14.824 C 871.356 4.301 870.33 -4.778 882.414 -10.76 C 884.207 -10.661 883.396 -10.973 884.815 -9.527 C 888.307 0.009 866.629 22.253 860.028 29.066 L 858.669 29.154 Z" style="stroke-width: 1;"/>
    <path fill="white" d="M 793.186 -34.696 C 799.75 -31.512 798.217 -28.063 802.591 -23.663 C 803.766 -23.299 804.847 -22.919 805.97 -22.406 L 806.138 -21.034 C 809.149 -20.019 813.671 -20.397 816.981 -19.927 C 814.962 -19.199 812.841 -18.697 810.772 -18.129 C 803.417 -17.729 795.643 -17.774 788.5 -15.865 C 789.587 -22.331 791.071 -28.487 793.186 -34.696 Z" style="stroke-width: 1;"/>
    <path fill="white" d="M 794.048 2.539 C 797.764 2.416 804 1.952 807.43 3.147 L 807.876 3.894 C 806.214 7.439 799.267 9.553 798.3 12.181 C 794.764 14.134 792.313 14.947 788.484 16.326 C 787.682 11.71 787.135 8.031 786.837 3.339 L 794.048 2.539 Z" style="stroke-width: 1;"/>
    <path fill="white" d="M 1009.81 -173.99 L 1010.21 -173.73 C 1010.03 -170.75 997.776 -157.73 995.075 -154.68 C 994.097 -156.71 993.287 -158.82 992.433 -160.9 C 991.418 -163.98 990.311 -165.28 987.78 -167.24 L 987.105 -167.75 C 987.402 -168.07 1006.92 -173.09 1009.81 -173.99 Z" style="stroke-width: 1;"/>
    <path fill="white" d="M 907.726 -50.074 C 909.064 -61.181 905.989 -71.314 921.369 -66.321 L 923.476 -64.812 C 919.192 -58.518 915.397 -51.812 907.726 -50.074 Z" style="stroke-width: 1;"/>
    <path fill="white" d="M 900.575 -25.171 C 900.827 -24.305 900.826 -23.889 900.646 -23.012 C 896.429 -2.465 883.515 14.515 868.911 28.876 C 865.028 32.694 860.988 36.786 856.486 39.863 C 856.701 37.664 867.973 27.332 869.981 25.311 C 876.896 18.355 883.135 11.352 887.833 2.655 C 889.933 -1.232 891.827 -5.297 893.169 -9.512 C 894.384 -13.329 895.178 -17.634 897.048 -21.176 C 897.898 -22.785 899.239 -23.973 900.575 -25.171 Z" style="stroke-width: 1;"/>
    <path fill="white" d="M 1050.32 -451.98 C 1052.61 -452.09 1054.9 -452.15 1057.19 -452.19 C 1068.08 -452.25 1073.56 -449.56 1081.09 -442.12 L 1080.65 -441.49 C 1072.46 -446.36 1062.17 -444.81 1053.13 -447.94 C 1051.49 -448.51 1050.42 -448.96 1049.69 -450.57 L 1050.32 -451.98 Z" style="stroke-width: 1;"/>
    <path fill="white" d="M 1127.26 70.683 C 1136.53 73.793 1145.92 76.526 1155.19 79.63 L 1154.78 80.005 C 1145.01 79.936 1134.83 77.745 1125.28 75.803 L 1127.26 70.683 Z" style="stroke-width: 1;"/>
    <path fill="white" d="M 894.919 49.456 C 901.606 57.79 903.506 62.776 905.807 73.094 C 905.584 72.964 905.356 72.841 905.138 72.702 C 898.766 68.649 896.315 56.256 894.919 49.456 Z" style="stroke-width: 1;"/>
    <path fill="white" d="M 867.208 -27.781 C 868.851 -27.502 871.453 -27.344 872.74 -26.269 C 873.608 -25.544 873.951 -24.644 873.778 -23.521 C 873.383 -20.964 869.84 -18.256 867.916 -16.762 C 865.591 -16.011 863.154 -15.499 860.783 -14.902 C 864.639 -18.999 866.399 -22.113 867.208 -27.781 Z" style="stroke-width: 1;"/>
    <path fill="#F0EAE9" d="M 958.325 1.34 C 958.577 1.398 958.831 1.448 959.082 1.514 C 969.3 4.195 983.349 10.971 988.604 20.614 C 987.732 20.241 987.829 20.379 987.273 19.896 C 983.911 16.975 980.734 13.61 976.867 11.336 C 970.379 7.52 963.387 7.948 958.325 1.34 Z" style="stroke-width: 1;"/>
    <path fill="#F0EAE9" d="M 931.68 -75.345 C 932.111 -76.486 933.784 -80.789 934.306 -81.553 C 942.509 -93.543 959.138 -115.96 970.641 -124.21 L 970.172 -123.62 C 958.187 -108.67 939.649 -93.128 932.433 -75.013 L 931.68 -75.345 Z" style="stroke-width: 1;"/>
    <path fill="white" d="M 987.013 -69.809 C 991.402 -69.622 997.232 -69.227 1001.18 -67.243 L 1001.17 -66.647 C 1000.23 -66.502 999.3 -66.374 998.379 -66.153 C 997.967 -66.054 997.22 -65.855 996.871 -65.823 C 995.179 -65.669 994.471 -67.019 993.398 -68.122 C 993.643 -67.468 994.062 -66.816 994.394 -66.2 L 994.006 -65.56 C 992.131 -65.277 990.252 -65.444 988.381 -65.694 C 985.947 -66.019 981.564 -66.838 980.108 -68.776 C 982.342 -69.537 984.677 -69.609 987.013 -69.809 Z" style="stroke-width: 1;"/>
    <path fill="white" d="M 816.674 -17.025 L 817.971 -17.115 L 818.165 -16.618 C 817.846 -16.299 817.594 -16.024 817.248 -15.747 C 811.04 -10.764 804.257 -11.577 796.922 -12.628 C 795.829 -12.96 794.739 -13.302 793.653 -13.653 L 793.74 -14.031 C 801.685 -15.805 807.719 -14.173 816.674 -17.025 Z" style="stroke-width: 1;"/>
    <path fill="#F0EAE9" d="M 1018.9 -98.174 C 1019.78 -97.577 1019.34 -97.734 1020.47 -97.6 C 1024.31 -97.146 1033.95 -96.652 1036.65 -93.99 C 1035.34 -93.23 1033.85 -93.428 1032.39 -93.437 C 1031.21 -93.714 1030.37 -93.694 1029.18 -93.7 C 1026.33 -93.716 1014.22 -95.717 1012.67 -97.209 C 1014.46 -97.507 1016.23 -97.267 1017.99 -97.852 C 1018.29 -97.954 1018.59 -98.067 1018.9 -98.174 Z" style="stroke-width: 1;"/>
    <path fill="white" d="M 884.352 -43.513 C 886.236 -40.788 890.973 -37.969 891.535 -34.846 L 890.257 -33.755 C 889.166 -33.74 888.039 -33.706 886.956 -33.855 C 885.108 -34.109 883.495 -35.386 882.491 -36.928 C 881.429 -38.557 881.818 -40.114 882.192 -41.869 L 883.701 -42.221 L 884.352 -43.513 Z" style="stroke-width: 1;"/>
    <path fill="white" d="M 975.755 -94.019 C 978.539 -93.55 981.541 -92.047 984.037 -90.748 C 980.448 -90.351 977.02 -89.841 973.513 -88.975 C 973.444 -88.953 973.37 -88.944 973.305 -88.91 C 972.271 -88.361 971.545 -87.826 970.332 -87.712 C 969.162 -87.602 968.47 -87.712 967.594 -88.511 C 967.709 -89.041 967.681 -89.074 968.003 -89.621 C 969.363 -91.93 973.322 -93.351 975.755 -94.019 Z" style="stroke-width: 1;"/>
    <path fill="white" d="M 970.607 -140.06 L 971.173 -141.12 C 974.11 -140.17 976.298 -138.83 978.998 -137.35 C 976.093 -134.58 973.466 -132.16 970.423 -129.54 C 970.786 -133.52 970.827 -135.5 970.521 -139.53 L 970.607 -140.06 Z" style="stroke-width: 1;"/>
    <path fill="white" d="M 930.314 -139.72 C 931.267 -139.46 930.999 -139.58 931.919 -139.13 C 932.884 -138.66 948.259 -127.42 949.094 -126.55 C 949.949 -125.65 950.29 -124.57 950.688 -123.43 C 943.536 -127.71 934.832 -132.57 930.314 -139.72 Z" style="stroke-width: 1;"/>
    <path fill="white" d="M 840.381 -91.753 C 846.422 -91.021 850.894 -89.571 854.856 -84.493 L 854.66 -83.555 C 853.692 -83.031 854.122 -83.16 853.426 -83.012 L 851.842 -82.92 C 847.83 -85.696 844.294 -89.087 840.381 -91.753 Z" style="stroke-width: 1;"/>
    <path fill="#F0EAE9" d="M 950.306 -9.45 C 944.322 -14.415 938.983 -19.152 931.711 -22.209 C 928.794 -23.435 923.698 -24.881 921.179 -26.193 C 923.206 -27.099 926.227 -25.594 928.235 -25.003 C 937.425 -22.302 943.932 -16.202 950.989 -10.057 L 950.306 -9.45 Z" style="stroke-width: 1;"/>
    <path fill="white" d="M 865.928 -49.28 C 868.94 -48.399 871.593 -46.386 874.164 -44.642 C 874.941 -42.057 875.468 -39.562 875.902 -36.906 C 871.354 -39.098 868.916 -45.338 865.928 -49.28 Z" style="stroke-width: 1;"/>
    <path fill="#F0EAE9" d="M 914.891 -21.512 L 915.122 -21.206 C 913.475 -18.071 910.359 -15.663 908.717 -12.209 C 907.012 -8.625 909.326 -2.824 910.628 0.625 L 910.326 1.18 C 910.178 1.015 910.027 0.854 909.883 0.687 C 907.502 -2.083 905.867 -4.911 906.22 -8.68 C 906.726 -14.08 910.992 -18.185 914.891 -21.512 Z" style="stroke-width: 1;"/>
    <path fill="#F0EAE9" d="M 914.46 -49.075 L 914.976 -48.377 C 913.863 -47.431 912.792 -46.356 911.737 -45.339 C 910.313 -39.567 909.179 -36.591 906.57 -31.266 L 908.091 -42.289 C 907.262 -43.56 905.991 -43.896 904.436 -44.732 L 904.671 -45.025 C 908.814 -45.018 910.936 -45.881 914.034 -48.682 L 914.46 -49.075 Z" style="stroke-width: 1;"/>
    <path fill="white" d="M 820.167 3.949 L 820.897 4.062 C 818.872 7.726 807.64 10.698 803.528 12.174 C 803.051 12.366 803.358 12.291 802.581 12.206 C 806.095 7.635 814.845 5.639 820.167 3.949 Z" style="stroke-width: 1;"/>
    <path fill="#CDC1BD" d="M 1024.8 -112.44 C 1024.95 -112.45 1025.1 -112.47 1025.25 -112.45 C 1026.5 -112.36 1027.76 -111.76 1028.56 -110.8 C 1026.51 -109.29 1022.7 -110.95 1019.97 -110.2 C 1014.7 -108.74 1009.31 -107.69 1004.03 -106.24 C 1002.73 -105.81 1001.9 -105.6 1000.51 -105.67 L 1000.43 -106.16 C 1005.86 -109.35 1018.02 -110.05 1024.8 -112.44 Z" style="stroke-width: 1;"/>
    <path fill="white" d="M 927.83 -37.231 C 930.403 -35.005 933.218 -29.506 934.87 -26.492 C 932.835 -27.175 929.896 -28.326 928.62 -30.139 C 927.004 -32.435 927.357 -34.629 927.83 -37.231 Z" style="stroke-width: 1;"/>
    <path fill="white" d="M 891.096 -78.297 L 891.793 -78.161 C 896.37 -77.31 901.468 -78.365 903.684 -77.612 C 904.293 -76.096 904.287 -76.824 903.838 -75.36 C 900.793 -73.663 893.848 -76.227 890.652 -77.309 L 891.096 -78.297 Z" style="stroke-width: 1;"/>
    <path fill="#F0EAE9" d="M 946.345 -121 C 942.224 -125.06 935.646 -127.04 933.763 -133.51 C 933.653 -133.55 946.48 -122.3 947.327 -121.4 L 946.345 -121 Z" style="stroke-width: 1;"/>
    <path fill="#C0A9A6" d="M 853.27 -63.263 C 858.423 -59.998 869.348 -54.716 872.949 -51.698 C 870.789 -52.157 854.293 -60.776 852.358 -62.468 L 853.27 -63.263 Z" style="stroke-width: 1;"/>
    <path fill="#F0EAE9" d="M 924.33 39.476 C 927.83 42.557 930.954 45.082 934.624 47.953 L 931.77 50.466 C 929.832 47.05 926.647 42.776 924.33 39.476 Z" style="stroke-width: 1;"/>
    <path fill="#F0EAE9" d="M 942.366 33.336 C 946.548 35.495 951.306 41.049 954.602 44.516 C 954.043 44.449 953.819 44.441 953.312 44.327 C 949.025 43.366 944.62 36.9 942.366 33.336 Z" style="stroke-width: 1;"/>
    <path fill="#F0EAE9" d="M 898.713 -34.63 L 899.134 -34.113 C 898.983 -32.943 899.006 -32.66 898.095 -31.825 C 894.651 -28.671 887.904 -28.172 883.511 -28.429 L 883.116 -29.133 L 883.466 -29.723 C 887.822 -29.764 891.581 -30.078 895.805 -31.227 C 896.839 -32.285 897.763 -33.492 898.713 -34.63 Z" style="stroke-width: 1;"/>
    <path fill="#F0EAE9" d="M 901.546 -2.657 C 901.782 -2.532 902.045 -2.449 902.254 -2.283 C 904.721 -0.333 912.092 10.408 912.957 13.292 C 909.561 9.181 902.505 2.489 901.546 -2.657 Z" style="stroke-width: 1;"/>
    <path fill="#A2857E" d="M 1068.55 -438.28 C 1061.09 -439.69 1058.71 -439.75 1051.11 -439.98 L 1050.65 -440.65 L 1051.43 -441.49 C 1053.45 -442.06 1066.32 -439.65 1068.8 -439.07 L 1068.55 -438.28 Z" style="stroke-width: 1;"/>
    <path fill="white" d="M 890.377 -53.618 C 892.872 -51.506 898.605 -47.526 899.689 -44.509 C 898.924 -44.577 898.228 -44.661 897.52 -44.985 C 893.96 -46.612 891.673 -50.059 890.377 -53.618 Z" style="stroke-width: 1;"/>
    <path fill="#F0EAE9" d="M 1023.04 -117.48 L 1029.2 -116.88 C 1030.69 -116.3 1032.49 -115.84 1033.44 -114.68 C 1031.42 -113.94 1026.27 -115.16 1023.41 -115.29 L 1023.04 -117.48 Z" style="stroke-width: 1;"/>
    <path fill="#CDC1BD" d="M 1264.21 78.83 C 1264.09 80.137 1263.96 81.455 1263.62 82.727 C 1262.22 88.021 1258.26 93.85 1253.46 96.476 C 1253.55 95.296 1257.9 91.395 1258.89 89.975 C 1261.25 86.559 1262.69 82.664 1264.21 78.83 Z" style="stroke-width: 1;"/>
    <path fill="white" d="M 925.683 -98.169 C 926.47 -98.098 927.024 -97.923 927.762 -97.605 C 930.908 -96.25 934.173 -93.174 935.507 -90.031 C 932.209 -90.396 927.884 -95.828 925.683 -98.169 Z" style="stroke-width: 1;"/>
    <path fill="#F0EAE9" d="M 987.62 -32.945 C 992.477 -31.849 997.413 -29.736 1001.64 -27.109 C 996.389 -27.958 991.582 -29.133 987.62 -32.945 Z" style="stroke-width: 1;"/>
    <path fill="#A2857E" d="M 980.374 -108.53 C 986.25 -103.65 988.316 -105.27 995.096 -104.32 L 995.175 -103.61 C 990.726 -103.12 985.142 -103.36 981.528 -106.37 C 980.548 -107.18 980.497 -107.33 980.374 -108.53 Z" style="stroke-width: 1;"/>
    <path fill="#F0EAE9" d="M 881.998 -22.115 C 882.03 -22.077 882.068 -22.044 882.094 -22.002 C 884.26 -18.396 886.591 -16.874 886.367 -12.425 C 886.221 -12.518 886.062 -12.594 885.928 -12.704 C 883.847 -14.404 882.119 -19.499 881.998 -22.115 Z" style="stroke-width: 1;"/>
    <path fill="#C0A9A6" d="M 880.464 55.264 C 882.076 59.883 880.283 65.936 881.373 71.029 C 878.769 66.56 879.256 60.117 880.464 55.264 Z" style="stroke-width: 1;"/>
    <path fill="#A2857E" d="M 882.384 -67.648 C 882.597 -67.611 882.811 -67.579 883.022 -67.535 C 887.199 -66.671 894.482 -60.473 896.739 -56.979 C 891.948 -60.551 887.266 -64.187 882.384 -67.648 Z" style="stroke-width: 1;"/>
    <path fill="#593123" d="M 921.369 -66.321 C 922.513 -68.337 921.746 -67.585 923.707 -68.714 C 925.367 -68.378 924.635 -68.774 925.799 -67.198 C 925.861 -65.339 926.115 -66.145 925.096 -64.67 C 924.453 -64.695 924.092 -64.659 923.476 -64.812 L 921.369 -66.321 Z" style="stroke-width: 1;"/>
    <path fill="#8C6A63" d="M 932.433 -75.013 C 931.07 -71.963 929.547 -68.017 927.492 -65.501 L 927.089 -65.555 C 927.83 -68.565 930.189 -72.398 931.68 -75.345 L 932.433 -75.013 Z" style="stroke-width: 1;"/>
    <path fill="#8C6A63" d="M 994.307 -10.967 C 999.138 -9.486 1003.9 -7.346 1008.41 -5.09 C 1007.76 -5.075 1007.74 -5.05 1006.98 -5.179 C 1003.97 -5.689 996.002 -8.58 994.307 -10.967 Z" style="stroke-width: 1;"/>
    <path fill="#684435" d="M 970.521 -139.53 L 969.493 -138.25 L 968.641 -138.45 C 967.767 -140.24 967.998 -141.89 968.732 -143.68 L 969.44 -143.83 C 970.47 -142.6 970.404 -141.66 970.607 -140.06 L 970.521 -139.53 Z" style="stroke-width: 1;"/>
    <path fill="#A2857E" d="M 893.175 -26.931 L 893.417 -26.922 L 893.529 -26.43 C 891.235 -24.514 887.504 -24.075 884.624 -23.824 L 884.13 -24.006 C 884.853 -25.091 891.383 -26.187 893.175 -26.931 Z" style="stroke-width: 1;"/>
    <path fill="#F0EAE9" d="M 934.754 -105.6 C 936.645 -105.13 938.864 -104.76 940.624 -103.94 C 941.795 -103.39 941.719 -103.12 942.075 -101.95 C 941.949 -101.94 941.824 -101.92 941.698 -101.91 C 939.044 -101.84 936.681 -104.02 934.754 -105.6 Z" style="stroke-width: 1;"/>
    <path fill="#C0A9A6" d="M 852.703 -38.214 C 857.518 -36.857 860.13 -36.275 863.814 -32.775 L 862.544 -32.594 C 860.261 -34.526 855.585 -36.652 852.703 -38.214 Z" style="stroke-width: 1;"/>
    <path fill="#CDC1BD" d="M 1162.47 -383.28 C 1160.92 -383.39 1157.33 -384.1 1155.64 -384.37 L 1155.51 -385.47 L 1154.46 -385.04 L 1154.89 -384.58 L 1154.72 -385.23 L 1154.42 -384.88 C 1156.14 -385.74 1162.15 -384.63 1164.3 -384.28 L 1162.47 -383.28 Z" style="stroke-width: 1;"/>
    <path fill="#F0EAE9" d="M 959.845 -159.15 C 962 -157.57 963.486 -153.39 964.487 -150.94 C 961.787 -153.01 960.485 -155.88 959.845 -159.15 Z" style="stroke-width: 1;"/>
    <path fill="#F0EAE9" d="M 828.915 -2.288 C 827.306 -1.311 824.832 0.453 822.928 -0.141 C 823.942 -1.567 826.512 -2.357 828.239 -3.09 L 828.915 -2.288 Z" style="stroke-width: 1;"/>
    <path fill="#CDC1BD" d="M 845.196 -12.364 L 846.15 -12.252 L 845.76 -11.75 C 843.221 -10.951 840.871 -10.575 838.238 -10.285 L 837.567 -10.259 L 837.599 -10.634 C 840.159 -11.473 842.54 -11.982 845.196 -12.364 Z" style="stroke-width: 1;"/>
    <path fill="#F0EAE9" d="M 851.842 -82.92 L 853.426 -83.012 C 855.571 -79.969 856.217 -78.478 857.778 -75.061 C 855.524 -77.834 853.857 -79.98 851.842 -82.92 Z" style="stroke-width: 1;"/>
    <path fill="#F0EAE9" d="M 1010.66 -148.47 C 1012.34 -147.99 1014.05 -147.62 1015.74 -147.18 C 1014.9 -146.43 1013.42 -146.55 1012.3 -146.43 L 1010.83 -145.94 L 1010.11 -146.13 L 1010.1 -145.71 L 1008.64 -145.42 L 1010.7 -147.16 L 1010.66 -148.47 Z" style="stroke-width: 1;"/>
    <path fill="#A19C9B" d="M 978.522 -88.112 L 978.949 -87.949 L 978.865 -87.44 L 972.672 -83.803 L 972.493 -83.79 L 972.069 -84.164 C 973.653 -86.142 976.096 -87.489 978.522 -88.112 Z" style="stroke-width: 1;"/>
    <path fill="#CDC1BD" d="M 798.3 12.181 L 800.239 11.649 L 800.356 12.202 C 798.985 13.686 796.922 15.686 795.992 17.383 L 795.21 16.453 C 796.297 15.023 797.269 13.652 798.3 12.181 Z" style="stroke-width: 1;"/>
    <path fill="#CDC1BD" d="M 1040.56 -327.98 C 1041.73 -329.53 1044.48 -333.51 1045.89 -334.44 L 1045.91 -334.41 L 1045.79 -333.94 L 1045.34 -334.19 L 1045.54 -333.41 C 1044.16 -331.18 1042.71 -328.98 1041.2 -326.84 L 1040.56 -327.98 Z" style="stroke-width: 1;"/>
    <path fill="#F0EAE9" d="M 813.309 0.026 C 814.703 -0.102 815.732 -0.236 817.07 0.312 C 816.642 1.414 815.931 1.479 814.914 1.994 C 813.721 1.908 812.667 1.63 811.514 1.332 L 811.529 0.858 L 813.309 0.026 Z" style="stroke-width: 1;"/>
    <path fill="#C0A9A6" d="M 1102.39 -401.55 C 1101.1 -403.54 1100.19 -405.2 1099.07 -407.27 L 1099.39 -408.06 L 1099.08 -408.43 L 1098.64 -408.35 L 1098.6 -408.64 L 1099.12 -408.44 L 1098.82 -407.94 L 1099.52 -407.97 C 1100.66 -406.49 1102.12 -404.03 1103.17 -402.39 L 1102.39 -401.55 Z" style="stroke-width: 1;"/>
    <path fill="#A2857E" d="M 932.614 -56.183 L 933.204 -55.491 C 933.489 -53.114 933.01 -50.854 932.641 -48.509 L 932.215 -48.817 C 931.297 -50.688 932.319 -54.167 932.614 -56.183 Z" style="stroke-width: 1;"/>
    <path fill="#CDC1BD" d="M 974.912 -127.58 C 973.668 -126.32 971.835 -124.21 970.176 -123.95 C 971.085 -125.84 972.925 -127.14 974.56 -128.57 L 974.912 -127.58 Z" style="stroke-width: 1;"/>
    <path fill="#A2857E" d="M 1274.85 90.907 C 1275.9 91.498 1276.01 91.648 1276.61 92.699 C 1276.42 94.433 1274.94 95.894 1273.88 97.23 C 1273.33 95.41 1275.43 94.097 1274.85 90.907 Z" style="stroke-width: 1;"/>
    <path fill="#F0EAE9" d="M 998.787 -144.37 C 999.656 -145.56 1000.86 -147.66 1001.99 -148.03 C 1001.69 -145.98 1000.54 -144.59 999.41 -142.81 L 998.787 -144.37 Z" style="stroke-width: 1;"/>
    <path fill="#CDC1BD" d="M 890.652 -77.309 C 887.528 -78.632 884.705 -80.004 881.913 -81.942 C 884.983 -80.748 888.044 -79.533 891.096 -78.297 L 890.652 -77.309 Z" style="stroke-width: 1;"/>
    <path fill="#F0EAE9" d="M 1065.18 -383.95 C 1064.77 -386.78 1064.35 -389.55 1064.72 -392.42 C 1065.27 -389.48 1065.96 -386.12 1066.34 -383.18 L 1065.18 -383.95 Z" style="stroke-width: 1;"/>
    <path fill="#C0A9A6" d="M 1099.87 -411.93 C 1103.04 -409.28 1104.27 -408.11 1107.02 -405.02 L 1105.89 -404.78 C 1103.84 -407.12 1101.83 -409.51 1099.87 -411.93 Z" style="stroke-width: 1;"/>
    <path fill="#F0EAE9" d="M 927.939 -79.599 C 928.113 -77.526 928.458 -77.506 927.663 -75.964 C 926.26 -76.878 926.311 -77.832 926.082 -79.488 L 927.939 -79.599 Z" style="stroke-width: 1;"/>
    <path fill="#A2857E" d="M 1076.11 127.594 C 1077.85 125.102 1079.43 123.155 1081.6 121.032 L 1082.3 121.962 C 1080.41 124.081 1078.28 125.76 1076.11 127.594 Z" style="stroke-width: 1;"/>
    <path fill="#F0EAE9" d="M 866.409 -10.165 L 867.025 -9.983 C 866.546 -8.739 864.338 -7.525 863.212 -6.699 L 862.615 -6.793 L 862.462 -7.553 C 863.518 -8.772 865.009 -9.411 866.409 -10.165 Z" style="stroke-width: 1;"/>
    <path fill="#8C6A63" d="M 914.46 -49.075 C 915.594 -50.577 917.001 -52.83 918.589 -53.632 C 918.246 -52.166 916.048 -49.487 914.976 -48.377 L 914.46 -49.075 Z" style="stroke-width: 1;"/>
    <path fill="#C0A9A6" d="M 857.994 -53.253 C 860.235 -50.908 861.401 -49.521 863.36 -46.932 C 860.798 -48.937 859.492 -50.092 857.188 -52.388 L 857.994 -53.253 Z" style="stroke-width: 1;"/>
    <path fill="#C0A9A6" d="M 858.669 29.154 L 860.028 29.066 C 857.617 31.984 856.818 32.88 853.873 35.217 C 855.457 33.057 856.817 31.11 858.669 29.154 Z" style="stroke-width: 1;"/>
    <path fill="#A2857E" d="M 901.992 -88.193 C 904.408 -86.789 906.055 -84.549 907.767 -82.399 C 905.087 -83.647 903.561 -85.764 901.992 -88.193 Z" style="stroke-width: 1;"/>
    <path fill="#8C6A63" d="M 974.56 -128.57 C 975.607 -129.76 976.803 -131.47 978.226 -131.84 C 978.02 -130.25 976.107 -128.69 974.912 -127.58 L 974.56 -128.57 Z" style="stroke-width: 1;"/>
    <path fill="#C0A9A6" d="M 947.327 -121.4 C 948.314 -120.09 948.87 -119.51 949.471 -117.96 L 949.277 -117.39 C 947.876 -118.67 947.444 -119.42 946.345 -121 L 947.327 -121.4 Z" style="stroke-width: 1;"/>
    <path fill="#8C6A63" d="M 917.339 -19.173 C 917.366 -19.012 917.411 -18.853 917.42 -18.69 C 917.507 -17.145 916.269 -16.008 915.348 -14.913 L 915.143 -15.734 C 915.428 -17.367 916.223 -18.054 917.339 -19.173 Z" style="stroke-width: 1;"/>
    <path fill="#A2857E" d="M 863.814 -32.775 C 864.626 -31.534 865.198 -31.217 865.016 -30.137 C 863.604 -31.051 863.55 -31.284 862.544 -32.594 L 863.814 -32.775 Z" style="stroke-width: 1;"/>
    <path fill="#8C6A63" d="M 1095.2 -416.09 C 1096.83 -415.07 1098.22 -413.67 1099.64 -412.36 C 1097.21 -412.93 1096.41 -414.08 1095.2 -416.09 Z" style="stroke-width: 1;"/>
    <path fill="#C0A9A6" d="M 969.275 -68.923 C 970.67 -68.54 971.569 -68.587 972.289 -67.686 C 970.684 -67.622 970.559 -67.568 968.926 -67.909 L 969.275 -68.923 Z" style="stroke-width: 1;"/>
    <path fill="#8C6A63" d="M 916.509 -74.126 C 916.758 -74.21 917.031 -74.195 917.294 -74.211 C 918.214 -74.266 918.153 -74.052 918.81 -73.471 L 917.393 -73.348 L 916.509 -74.126 Z" style="stroke-width: 1;"/>
  </g>
</svg>